<svg width="24" height="25" viewBox="0 0 24 25" fill="none" xmlns="http://www.w3.org/2000/svg">
<g filter="url(#filter0_d_231_2968)">
<path d="M15.1242 8.0716H19.0002L16.5303 5.75709C15.7352 5.01239 14.7447 4.47686 13.6585 4.20434C12.5722 3.93181 11.4285 3.93189 10.3423 4.20457C9.25613 4.47725 8.26572 5.01291 7.47068 5.75772C6.67563 6.50252 6.10396 7.43022 5.81313 8.44754M5.00098 15.5583V11.9284M5.00098 11.9284H8.87697M5.00098 11.9284L7.47006 14.2429C8.26522 14.9876 9.25571 15.5231 10.3419 15.7957C11.4282 16.0682 12.5719 16.0681 13.6581 15.7954C14.7443 15.5228 15.7347 14.9871 16.5297 14.2423C17.3248 13.4975 17.8964 12.5698 18.1873 11.5525M19.0002 4.44167V8.07015" stroke="white" stroke-width="1.3" stroke-linecap="round" stroke-linejoin="round"/>
</g>
<defs>
<filter id="filter0_d_231_2968" x="-2" y="0" width="28" height="28" filterUnits="userSpaceOnUse" color-interpolation-filters="sRGB">
<feFlood flood-opacity="0" result="BackgroundImageFix"/>
<feColorMatrix in="SourceAlpha" type="matrix" values="0 0 0 0 0 0 0 0 0 0 0 0 0 0 0 0 0 0 127 0" result="hardAlpha"/>
<feOffset dy="4"/>
<feGaussianBlur stdDeviation="2"/>
<feComposite in2="hardAlpha" operator="out"/>
<feColorMatrix type="matrix" values="0 0 0 0 0 0 0 0 0 0 0 0 0 0 0 0 0 0 0.25 0"/>
<feBlend mode="normal" in2="BackgroundImageFix" result="effect1_dropShadow_231_2968"/>
<feBlend mode="normal" in="SourceGraphic" in2="effect1_dropShadow_231_2968" result="shape"/>
</filter>
</defs>
</svg>
